#!OML:ASF E:\Mandelcareful walks\Project 1\Capture day 1\Session 1\Subject1.ASF
:FULLY-SPECIFIED
:DEGREES
219
root -17.768 14.0521 -4.06008 -165.859 122.976 -183.835
lowerback 41.5748 1.37724 -2.38884
upperback 8.48429 1.02797 -2.8123
thorax -10.3801 0.824738 -2.28594
lowerneck -32.8773 9.50454 -0.125423
upperneck 14.2944 16.664 -14.6026
head 11.362 5.77551 -2.11158
rclavicle 1.82882e-014 -2.5842e-014
rhumerus -24.6847 5.09505 -88.205
rradius 42.2716
rwrist -62.4754
rhand 14.5179 -38.8163
rfingers 7.12502
rthumb 39.3977 -64.2212
lclavicle 1.82882e-014 -2.5842e-014
lhumerus 128.283 -80.4037 -27.9681
lradius 42.1832
lwrist -2.63963
lhand -25.2695 -16.8621
lfingers 7.12502
lthumb 1.25126 13.114
rfemur -36.6448 -8.504 0.657259
rtibia 61.1417
rfoot -27.6409 -24.7513
rtoes -33.5215
lfemur -66.782 10.357 -21.3946
ltibia 78.1952
lfoot -26.2064 3.54367
ltoes 2.01573
220
root -17.7 14.1265 -4.05797 -165.767 122.615 -183.988
lowerback 41.3555 1.34488 -2.41959
upperback 8.452 0.982897 -2.79743
thorax -10.3501 0.803164 -2.23063
lowerneck -33.027 9.42895 -0.112337
upperneck 14.3078 16.5255 -14.4709
head 11.3643 5.72166 -2.09373
rclavicle 3.73715e-014 -2.62396e-014
rhumerus -24.4124 5.64388 -88.4808
rradius 42.5031
rwrist -63.0761
rhand 13.1347 -39.4827
rfingers 7.12502
rthumb 38.093 -65.2566
lclavicle 3.73715e-014 -2.62396e-014
lhumerus 130.839 -80.1906 -31.0055
lradius 42.647
lwrist -1.05988
lhand -28.1054 -16.9987
lfingers 7.12502
lthumb -1.48775 12.9759
rfemur -37.4096 -8.69128 1.19425
rtibia 61.0901
rfoot -27.7307 -24.7238
rtoes -32.3125
lfemur -66.3071 10.1174 -21.3996
ltibia 77.4908
lfoot -26.2143 3.26188
ltoes 3.08192
221
root -17.6364 14.1806 -4.04409 -165.591 122.345 -183.985
lowerback 41.1928 1.32354 -2.43547
upperback 8.37614 0.932744 -2.92774
thorax -10.3863 0.780638 -2.34008
lowerneck -33.2138 9.4304 0.160473
upperneck 14.4804 16.4118 -14.3687
head 11.4592 5.67282 -2.11839
rclavicle -7.63333e-014 -2.50469e-014
rhumerus -24.3527 5.91222 -88.7953
rradius 42.8143
rwrist -63.4555
rhand 12.5993 -39.909
rfingers 7.12502
rthumb 37.5874 -65.8193
lclavicle -7.63333e-014 -2.50469e-014
lhumerus 142.31 -78.2148 -43.5454
lradius 44.2091
lwrist 7.74838
lhand -22.1333 -15.7235
lfingers 7.12502
lthumb 4.28007 14.2133
rfemur -38.2189 -8.74522 1.62662
rtibia 61.124
rfoot -27.3629 -24.9391
rtoes -30.7555
lfemur -65.9039 10.1515 -21.5412
ltibia 76.888
lfoot -26.2111 2.90237
ltoes 2.9984
222
root -17.576 14.2225 -4.0365 -165.339 122.116 -183.862
lowerback 40.9992 1.26708 -2.36846
upperback 8.33454 0.873723 -3.09174
thorax -10.3744 0.753999 -2.52374
lowerneck -33.2698 9.41133 0.408304
upperneck 14.5558 16.2528 -14.2495
head 11.4876 5.62023 -2.14604
rclavicle 1.59028e-015 -7.43455e-014
rhumerus -24.4655 6.42489 -89.0279
rradius 43.402
rwrist -63.6852
rhand 12.2647 -40.0802
rfingers 7.12502
rthumb 37.2711 -66.0741
lclavicle 1.59028e-015 -7.43455e-014
lhumerus 142.614 -78.395 -44.3782
lradius 44.7764
lwrist 7.76776
lhand -25.2171 -16.442
lfingers 7.12502
lthumb 1.30192 13.5337
rfemur -39.1831 -8.95951 1.9532
rtibia 61.2531
rfoot -26.6692 -24.8017
rtoes -29.287
lfemur -65.5935 10.2093 -21.8262
ltibia 76.3558
lfoot -26.1566 2.64592
ltoes 2.40935
223
root -17.5178 14.2758 -4.02924 -165.202 121.852 -183.754
lowerback 40.8508 1.34932 -2.50958
upperback 8.32291 0.937931 -2.96878
thorax -10.3387 0.783174 -2.34212
lowerneck -33.3386 9.33101 0.387682
upperneck 14.6666 16.1649 -14.2129
head 11.5284 5.57198 -2.14735
rclavicle -6.36111e-014 1.03368e-013
rhumerus -24.5148 7.17142 -88.9439
rradius 43.9674
rwrist -63.7679
rhand 11.4415 -40.0938
rfingers 7.12502
rthumb 36.4922 -66.2879
lclavicle -6.36111e-014 1.03368e-013
lhumerus 142.579 -78.3102 -44.6093
lradius 45.519
lwrist 7.8622
lhand -27.1219 -15.4976
lfingers 7.12502
lthumb -0.537852 14.4815
rfemur -39.9776 -9.19642 2.34286
rtibia 61.3822
rfoot -26.2578 -23.9688
rtoes -27.3685
lfemur -65.0831 10.1902 -22.055
ltibia 75.7903
lfoot -26.131 2.42758
ltoes 2.84421
224
root -17.468 14.3257 -4.02633 -164.976 121.758 -183.769
lowerback 40.3507 1.58482 -2.76117
upperback 8.2988 1.16371 -2.72939
thorax -10.2032 0.880304 -2.03742
lowerneck -33.2179 9.27308 0.408872
upperneck 14.731 16.1335 -14.379
head 11.5547 5.53933 -2.21851
rclavicle 1.98785e-014 -1.27222e-014
rhumerus -24.0587 6.16764 -88.0344
rradius 42.4162
rwrist -58.2068
rhand 20.8219 -37.6363
rfingers 7.12502
rthumb 45.2999 -61.0167
lclavicle 1.98785e-014 -1.27222e-014
lhumerus 142.449 -78.6237 -44.4844
lradius 46.0477
lwrist 7.69085
lhand -24.4657 -16.0169
lfingers 7.12502
lthumb 2.02761 13.9532
rfemur -41.1075 -9.24823 2.81407
rtibia 61.5435
rfoot -26.2282 -23.2329
rtoes -25.8844
lfemur -64.8484 10.2569 -22.269
ltibia 75.2678
lfoot -26.0978 2.44771
ltoes 2.75946
225
root -17.4178 14.3719 -4.01207 -164.887 121.65 -183.67
lowerback 39.9171 1.7014 -2.97475
upperback 8.43258 1.26515 -2.60769
thorax -9.91159 0.928248 -1.82415
lowerneck -33.0969 9.34687 0.566777
upperneck 14.593 16.1924 -14.5769
head 11.5243 5.56774 -2.302
rclavicle 1.90833e-014 2.70347e-014
rhumerus -23.8339 6.70035 -87.9502
rradius 42.7812
rwrist -58.4131
rhand 21.1142 -37.6868
rfingers 7.12502
rthumb 45.5716 -60.9576
lclavicle 1.90833e-014 2.70347e-014
lhumerus 141.517 -78.7771 -43.7595
lradius 46.4179
lwrist 7.74556
lhand -28.6714 -18.5502
lfingers 7.12502
lthumb -2.03437 11.4199
rfemur -41.9908 -9.18723 3.21411
rtibia 61.7371
rfoot -26.424 -22.8575
rtoes -24.7802
lfemur -64.331 10.3278 -22.4578
ltibia 74.783
lfoot -26.1534 2.48313
ltoes 2.0023
